<?xml version="1.0" standalone="no"?>
<!DOCTYPE svg PUBLIC "-//W3C//DTD SVG 20010904//EN"
 "http://www.w3.org/TR/2001/REC-SVG-20010904/DTD/svg10.dtd">
<svg version="1.0" xmlns="http://www.w3.org/2000/svg"
 width="260.000000pt" height="260.000000pt" viewBox="0 0 260.000000 260.000000"
 preserveAspectRatio="xMidYMid meet">
<metadata>
Created by potrace 1.11, written by Peter Selinger 2001-2013
</metadata>
<g transform="translate(0.000000,260.000000) scale(0.100000,-0.100000)"
fill="#000000" stroke="none">
<path d="M1173 2559 c-682 -61 -1193 -674 -1132 -1360 47 -546 422 -985 954
-1118 236 -59 514 -43 745 44 529 200 862 732 809 1293 -51 544 -424 978 -955
1111 -68 17 -285 44 -319 40 -5 -1 -51 -5 -102 -10z m803 -331 c38 -35 44 -45
39 -69 -5 -21 -1 -31 17 -43 12 -9 32 -16 45 -16 13 0 32 -13 48 -35 l27 -34
-21 -30 c-12 -16 -21 -32 -21 -36 0 -4 -48 -57 -107 -119 -179 -187 -463 -519
-463 -542 0 -10 121 -168 262 -342 59 -74 108 -140 108 -148 0 -35 -45 -106
-83 -132 -27 -18 -45 -39 -51 -60 -5 -19 -24 -45 -43 -59 l-33 -26 -38 25 -38
25 -38 -38 c-22 -22 -48 -39 -60 -39 -26 0 -107 97 -230 278 -43 61 -80 112
-84 112 -8 -1 -102 -121 -285 -364 -80 -106 -136 -172 -149 -174 -28 -5 -68
36 -68 69 0 35 -12 42 -45 27 -23 -10 -29 -8 -59 21 -19 18 -42 48 -52 66 -17
32 -17 35 0 72 17 38 17 41 -4 92 l-20 53 67 81 c37 45 132 158 212 250 81 93
152 177 159 187 11 15 2 38 -62 166 -96 191 -216 493 -216 542 0 18 67 102 82
102 5 0 22 -9 37 -19 22 -16 29 -17 44 -6 9 7 17 22 17 33 0 27 26 52 55 52
34 0 83 -60 233 -289 74 -113 136 -207 137 -209 2 -2 25 20 51 50 208 226 555
568 577 568 4 0 28 -19 53 -42z"/>
</g>
</svg>
